<svg width="716" height="64" viewBox="0 0 716 64" fill="none" xmlns="http://www.w3.org/2000/svg">
<g clip-path="url(#clip0_1_37)">
<path d="M5.44092 18L5.81713 28.6611L8.55622 18.351L6.55066 28.8285L11.5153 19.3864L7.22855 29.155L14.1698 21.0544L7.8168 29.6241L16.3866 23.2711L8.28591 30.2124L18.0545 25.9256L8.61238 30.8903L19.0899 28.8847L8.77978 31.6238L19.4409 32L8.77978 32.3762L19.0899 35.1153L8.61238 33.1097L18.0545 38.0744L8.28591 33.7876L16.3866 40.7289L7.8168 34.3759L14.1698 42.9456L7.22855 34.845L11.5153 44.6136L6.55066 35.1715L8.55622 45.649L5.81713 35.3389L5.44092 46L5.06471 35.3389L2.32562 45.649L4.33117 35.1715L-0.633446 44.6136L3.65329 34.845L-3.28794 42.9456L3.06504 34.3759L-5.50472 40.7289L2.59593 33.7876L-7.17264 38.0744L2.26946 33.1097L-8.20807 35.1153L2.10206 32.3762L-8.55908 32L2.10206 31.6238L-8.20807 28.8847L2.26946 30.8903L-7.17264 25.9256L2.59593 30.2124L-5.50472 23.2711L3.06504 29.6241L-3.28794 21.0544L3.65329 29.155L-0.633446 19.3864L4.33117 28.8285L2.32562 18.351L5.06471 28.6611L5.44092 18Z" fill="#CBCBCB"/>
<path d="M29.2595 36.8807C28.4378 36.8807 27.6845 36.6607 26.9999 36.2207C26.3289 35.7674 25.7947 35.154 25.3975 34.3807C25.0003 33.594 24.8018 32.7007 24.8018 31.7007C24.8018 30.7007 24.9935 29.8073 25.377 29.0207C25.7605 28.234 26.2876 27.614 26.9589 27.1607C27.6298 26.7074 28.3968 26.4807 29.2595 26.4807C30.0265 26.4807 30.6496 26.6207 31.1288 26.9007C31.622 27.1673 31.9987 27.5407 32.2588 28.0207C32.5189 28.5007 32.697 29.054 32.7931 29.6807C32.9024 30.3073 32.9571 30.9807 32.9571 31.7007C32.9571 32.2073 32.9024 32.7607 32.7931 33.3607C32.6833 33.9473 32.4916 34.514 32.2178 35.0607C31.9577 35.594 31.5879 36.034 31.1083 36.3807C30.6291 36.714 30.0129 36.8807 29.2595 36.8807ZM29.6704 35.3607C30.369 35.3607 30.9439 35.194 31.3961 34.8607C31.8616 34.5273 32.2041 34.0873 32.4232 33.5407C32.6423 32.9807 32.7517 32.3673 32.7517 31.7007C32.7517 30.9673 32.6355 30.3273 32.4027 29.7807C32.1836 29.2207 31.8411 28.7874 31.3756 28.4807C30.9234 28.1607 30.3553 28.0007 29.6704 28.0007C28.6433 28.0007 27.8489 28.354 27.2873 29.0607C26.7261 29.754 26.4451 30.634 26.4451 31.7007C26.4451 32.4073 26.5822 33.0407 26.856 33.6007C27.1438 34.1473 27.5273 34.5807 28.0065 34.9007C28.4993 35.2073 29.0541 35.3607 29.6704 35.3607ZM32.7517 22.6807H34.3954V36.6807H32.8956C32.8683 36.3873 32.8341 36.0407 32.7931 35.6407C32.7657 35.2407 32.7517 34.9207 32.7517 34.6807V22.6807Z" fill="#CBCBCB"/>
<path d="M41.8316 36.8807C40.9549 36.8807 40.1332 36.674 39.3662 36.2607C38.5996 35.8473 37.9761 35.254 37.4969 34.4807C37.0314 33.694 36.7986 32.7674 36.7986 31.7007C36.7986 30.634 37.0314 29.714 37.4969 28.9407C37.9761 28.154 38.5996 27.5474 39.3662 27.1207C40.1332 26.694 40.9549 26.4807 41.8316 26.4807C42.708 26.4807 43.5228 26.694 44.2762 27.1207C45.0432 27.5474 45.6594 28.154 46.125 28.9407C46.5905 29.714 46.8233 30.634 46.8233 31.7007C46.8233 32.7674 46.5905 33.694 46.125 34.4807C45.6594 35.254 45.0432 35.8473 44.2762 36.2607C43.5228 36.674 42.708 36.8807 41.8316 36.8807ZM41.8316 35.3807C42.4065 35.3807 42.9476 35.2407 43.4545 34.9607C43.961 34.6807 44.3719 34.2673 44.687 33.7207C45.0155 33.1607 45.1799 32.4873 45.1799 31.7007C45.1799 30.914 45.0155 30.2473 44.687 29.7007C44.3719 29.1407 43.961 28.714 43.4545 28.4207C42.9476 28.1273 42.4065 27.9807 41.8316 27.9807C41.2564 27.9807 40.7085 28.1273 40.1879 28.4207C39.6813 28.7007 39.2637 29.1207 38.9349 29.6807C38.6064 30.2273 38.442 30.9007 38.442 31.7007C38.442 32.4873 38.5996 33.1607 38.9143 33.7207C39.2432 34.2673 39.6677 34.6807 40.1879 34.9607C40.7085 35.2407 41.2564 35.3807 41.8316 35.3807Z" fill="#CBCBCB"/>
<path d="M48.9091 26.6807H50.5525V36.6807H48.9091V26.6807ZM53.8393 28.1807C53.141 28.1807 52.552 28.354 52.0725 28.7007C51.607 29.034 51.2371 29.4473 50.9634 29.9407C50.7029 30.4207 50.532 30.8873 50.4496 31.3407L50.4291 30.1807C50.4291 30.0607 50.4565 29.8607 50.5115 29.5807C50.5662 29.3007 50.6687 28.9873 50.8195 28.6407C50.9702 28.2807 51.1688 27.9407 51.4152 27.6207C51.6753 27.2873 52.0041 27.014 52.4013 26.8007C52.7985 26.5874 53.2777 26.4807 53.8393 26.4807V28.1807Z" fill="#CBCBCB"/>
<path d="M59.5724 36.8807C58.7643 36.8807 58.0179 36.6607 57.3332 36.2207C56.6623 35.7674 56.1212 35.154 55.7104 34.3807C55.3132 33.594 55.1146 32.7007 55.1146 31.7007C55.1146 30.7007 55.32 29.8073 55.7309 29.0207C56.1417 28.234 56.6965 27.614 57.3948 27.1607C58.1071 26.7074 58.9014 26.4807 59.7778 26.4807C60.7365 26.4807 61.4622 26.7207 61.9554 27.2007C62.4619 27.6674 62.8044 28.294 62.9825 29.0807C63.1743 29.8673 63.27 30.7407 63.27 31.7007C63.27 32.2073 63.2153 32.7607 63.1059 33.3607C62.9962 33.9473 62.8044 34.514 62.5307 35.0607C62.2702 35.594 61.9007 36.034 61.4212 36.3807C60.942 36.714 60.3257 36.8807 59.5724 36.8807ZM59.9832 35.3607C60.6815 35.3607 61.2568 35.194 61.709 34.8607C62.1745 34.5273 62.517 34.0873 62.7361 33.5407C62.9552 32.9807 63.0645 32.3673 63.0645 31.7007C63.0645 30.9673 62.9483 30.3273 62.7156 29.7807C62.4961 29.2207 62.154 28.7874 61.6881 28.4807C61.2363 28.1607 60.6678 28.0007 59.9832 28.0007C58.9561 28.0007 58.1618 28.354 57.6002 29.0607C57.0386 29.754 56.758 30.634 56.758 31.7007C56.758 32.4073 56.895 33.0407 57.1688 33.6007C57.4563 34.1473 57.8398 34.5807 58.3193 34.9007C58.8122 35.2073 59.3669 35.3607 59.9832 35.3607ZM63.0645 26.6807H64.7079V36.6807H63.2084C63.2084 36.6807 63.1948 36.5607 63.1674 36.3207C63.1538 36.0807 63.1333 35.8007 63.1059 35.4807C63.0782 35.1607 63.0645 34.894 63.0645 34.6807V26.6807Z" fill="#CBCBCB"/>
<path d="M71.2681 36.8807C70.4464 36.8807 69.6931 36.6607 69.0085 36.2207C68.3375 35.7674 67.8033 35.154 67.4061 34.3807C67.0089 33.594 66.8103 32.7007 66.8103 31.7007C66.8103 30.7007 67.0021 29.8073 67.3856 29.0207C67.7691 28.234 68.2961 27.614 68.9674 27.1607C69.6384 26.7074 70.4054 26.4807 71.2681 26.4807C72.0351 26.4807 72.6582 26.6207 73.1374 26.9007C73.6306 27.1673 74.0073 27.5407 74.2674 28.0207C74.5275 28.5007 74.7056 29.054 74.8016 29.6807C74.911 30.3073 74.966 30.9807 74.966 31.7007C74.966 32.2073 74.911 32.7607 74.8016 33.3607C74.6919 33.9473 74.5002 34.514 74.2264 35.0607C73.9663 35.594 73.5965 36.034 73.1169 36.3807C72.6377 36.714 72.0214 36.8807 71.2681 36.8807ZM71.6789 35.3607C72.3776 35.3607 72.9528 35.194 73.4047 34.8607C73.8702 34.5273 74.2127 34.0873 74.4318 33.5407C74.6509 32.9807 74.7603 32.3673 74.7603 31.7007C74.7603 30.9673 74.6441 30.3273 74.4113 29.7807C74.1922 29.2207 73.8497 28.7874 73.3842 28.4807C72.932 28.1607 72.3639 28.0007 71.6789 28.0007C70.6518 28.0007 69.8575 28.354 69.2959 29.0607C68.7347 29.754 68.4537 30.634 68.4537 31.7007C68.4537 32.4073 68.5908 33.0407 68.8646 33.6007C69.1524 34.1473 69.5359 34.5807 70.0151 34.9007C70.5079 35.2073 71.0627 35.3607 71.6789 35.3607ZM74.7603 22.6807H76.404V36.6807H74.9042C74.8768 36.3873 74.8427 36.0407 74.8016 35.6407C74.7743 35.2407 74.7603 34.9207 74.7603 34.6807V22.6807Z" fill="#CBCBCB"/>
<path d="M86.6546 33.4607H88.1951C88.0857 34.114 87.8393 34.7007 87.4558 35.2207C87.0859 35.7274 86.5927 36.134 85.9764 36.4407C85.3739 36.734 84.6756 36.8807 83.8812 36.8807C82.9225 36.8807 82.0598 36.6607 81.2928 36.2207C80.5257 35.7674 79.9163 35.154 79.4645 34.3807C79.0263 33.594 78.8072 32.7007 78.8072 31.7007C78.8072 30.7007 79.0194 29.8073 79.444 29.0207C79.8821 28.234 80.4779 27.614 81.2312 27.1607C81.9842 26.7074 82.8336 26.4807 83.7783 26.4807C84.7781 26.4807 85.6206 26.7007 86.3053 27.1407C87.0036 27.5674 87.5173 28.2007 87.8461 29.0407C88.1882 29.8673 88.3253 30.8873 88.257 32.1007H80.4506C80.5189 32.754 80.7038 33.3273 81.0053 33.8207C81.3064 34.314 81.7036 34.7007 82.1968 34.9807C82.6897 35.2473 83.2513 35.3807 83.8812 35.3807C84.5795 35.3807 85.1684 35.2073 85.648 34.8607C86.1409 34.5007 86.4765 34.034 86.6546 33.4607ZM83.8402 27.9807C82.9908 27.9807 82.2789 28.2207 81.7036 28.7007C81.1283 29.1807 80.7448 29.834 80.5531 30.6607H86.5722C86.5175 29.7807 86.2229 29.114 85.689 28.6607C85.1684 28.2073 84.5522 27.9807 83.8402 27.9807Z" fill="#CBCBCB"/>
<path d="M89.8831 33.4607H91.403C91.444 34.034 91.6631 34.5007 92.0603 34.8607C92.4712 35.2207 93.0601 35.4007 93.8271 35.4007C94.2926 35.4007 94.6556 35.3407 94.9161 35.2207C95.1898 35.1007 95.3884 34.9407 95.5118 34.7407C95.6349 34.5273 95.6964 34.294 95.6964 34.0407C95.6964 33.734 95.6144 33.494 95.45 33.3207C95.2992 33.134 95.087 32.9807 94.8132 32.8607C94.5531 32.7407 94.2516 32.6273 93.9095 32.5207C93.5123 32.374 93.1015 32.2207 92.6766 32.0607C92.2657 31.8873 91.8754 31.6874 91.5059 31.4607C91.1498 31.2207 90.862 30.934 90.6429 30.6007C90.4238 30.254 90.3144 29.8407 90.3144 29.3607C90.3144 28.9607 90.3964 28.5874 90.5608 28.2407C90.7252 27.8807 90.958 27.574 91.2591 27.3207C91.5743 27.054 91.9373 26.8473 92.3481 26.7007C92.7726 26.554 93.2382 26.4807 93.7451 26.4807C94.4297 26.4807 95.0049 26.614 95.4705 26.8807C95.95 27.1473 96.3127 27.5273 96.5594 28.0207C96.8195 28.5007 96.9566 29.0607 96.9703 29.7007H95.5528C95.4568 29.1007 95.2582 28.6674 94.9571 28.4007C94.6693 28.1207 94.2516 27.9807 93.704 27.9807C93.1425 27.9807 92.7111 28.1007 92.4096 28.3407C92.1085 28.5807 91.9578 28.9007 91.9578 29.3007C91.9578 29.594 92.0672 29.8407 92.2862 30.0407C92.5057 30.2273 92.7863 30.4007 93.1288 30.5607C93.4846 30.7074 93.8613 30.8607 94.2584 31.0207C94.6556 31.1807 95.0391 31.3407 95.4089 31.5007C95.7788 31.6607 96.1072 31.8473 96.395 32.0607C96.6825 32.274 96.9084 32.5407 97.0728 32.8607C97.2509 33.1673 97.3401 33.554 97.3401 34.0207C97.3401 34.5807 97.2031 35.0807 96.9293 35.5207C96.6688 35.9473 96.2785 36.2807 95.7583 36.5207C95.2514 36.7607 94.6283 36.8807 93.8886 36.8807C93.2177 36.8807 92.6424 36.8007 92.1632 36.6407C91.6977 36.4673 91.3073 36.2473 90.9922 35.9807C90.6774 35.7007 90.4306 35.4073 90.2525 35.1007C90.0885 34.794 89.9788 34.494 89.9241 34.2007C89.869 33.9073 89.8554 33.6607 89.8831 33.4607Z" fill="#CBCBCB"/>
<path d="M100.481 22.6807C101.031 22.6807 101.477 23.115 101.477 23.6507C101.477 24.1864 101.031 24.6207 100.481 24.6207H100.337C99.7872 24.6207 99.3411 24.1864 99.3411 23.6507C99.3411 23.115 99.7872 22.6807 100.337 22.6807H100.481ZM99.5875 26.6807H101.231V36.6807H99.5875V26.6807Z" fill="#CBCBCB"/>
<path d="M107.715 35.1007C106.989 35.1007 106.297 34.934 105.64 34.6007C104.996 34.254 104.469 33.7607 104.058 33.1207C103.661 32.4807 103.462 31.714 103.462 30.8207C103.462 29.9273 103.661 29.1607 104.058 28.5207C104.455 27.8673 104.976 27.3673 105.62 27.0207C106.263 26.6607 106.962 26.4807 107.715 26.4807C107.948 26.4807 108.167 26.5007 108.372 26.5407C108.592 26.5674 108.797 26.614 108.989 26.6807H113.159V28.4007C112.57 28.4007 111.981 28.294 111.392 28.0807C110.817 27.8673 110.324 27.6474 109.913 27.4207L109.831 27.3407C110.31 27.594 110.7 27.894 111.002 28.2407C111.317 28.5874 111.549 28.9807 111.7 29.4207C111.865 29.8473 111.947 30.314 111.947 30.8207C111.947 31.714 111.748 32.4807 111.351 33.1207C110.967 33.7607 110.454 34.254 109.81 34.6007C109.167 34.934 108.468 35.1007 107.715 35.1007ZM110.735 40.6807V40.2407C110.735 39.534 110.543 39.0207 110.159 38.7007C109.79 38.3807 109.228 38.2207 108.475 38.2207H106.421C105.969 38.2207 105.572 38.1807 105.229 38.1007C104.9 38.034 104.627 37.9273 104.408 37.7807C104.188 37.634 104.024 37.454 103.914 37.2407C103.805 37.0273 103.75 36.7873 103.75 36.5207C103.75 36.014 103.908 35.634 104.223 35.3807C104.538 35.114 104.928 34.9473 105.394 34.8807C105.859 34.814 106.304 34.814 106.729 34.8807L107.715 35.1007C106.976 35.1407 106.4 35.214 105.989 35.3207C105.592 35.4273 105.394 35.654 105.394 36.0007C105.394 36.2007 105.469 36.3673 105.62 36.5007C105.784 36.6207 106.024 36.6807 106.338 36.6807H108.475C109.187 36.6807 109.838 36.774 110.427 36.9607C111.016 37.1607 111.488 37.4873 111.844 37.9407C112.2 38.4073 112.378 39.0407 112.378 39.8407V40.6807H110.735ZM107.715 33.6007C108.167 33.6007 108.585 33.494 108.968 33.2807C109.365 33.0673 109.687 32.754 109.933 32.3407C110.18 31.9273 110.303 31.4207 110.303 30.8207C110.303 30.2207 110.18 29.714 109.933 29.3007C109.701 28.874 109.386 28.554 108.989 28.3407C108.592 28.114 108.167 28.0007 107.715 28.0007C107.263 28.0007 106.838 28.114 106.441 28.3407C106.044 28.554 105.722 28.8673 105.476 29.2807C105.229 29.694 105.106 30.2073 105.106 30.8207C105.106 31.4207 105.229 31.9273 105.476 32.3407C105.722 32.754 106.044 33.0673 106.441 33.2807C106.838 33.494 107.263 33.6007 107.715 33.6007Z" fill="#CBCBCB"/>
<path d="M115.092 26.6807H116.735V36.6807H115.092V26.6807ZM120.269 26.4807C120.816 26.4807 121.309 26.5607 121.748 26.7207C122.186 26.8807 122.556 27.114 122.857 27.4207C123.158 27.7274 123.391 28.1007 123.555 28.5407C123.72 28.9673 123.802 29.454 123.802 30.0007V36.6807H122.158V30.4007C122.158 29.6274 121.973 29.0473 121.604 28.6607C121.234 28.274 120.679 28.0807 119.94 28.0807C119.378 28.0807 118.858 28.2207 118.378 28.5007C117.899 28.7807 117.502 29.1673 117.187 29.6607C116.886 30.1407 116.701 30.7007 116.632 31.3407L116.612 30.1807C116.68 29.6207 116.817 29.114 117.022 28.6607C117.242 28.2073 117.509 27.8207 117.824 27.5007C118.152 27.1673 118.522 26.914 118.933 26.7407C119.358 26.5674 119.803 26.4807 120.269 26.4807Z" fill="#CBCBCB"/>
<path fill-rule="evenodd" clip-rule="evenodd" d="M277.566 20C278.086 20 278.508 20.4214 278.508 20.9412V26.1176C278.508 26.6374 278.086 27.0588 277.566 27.0588C277.047 27.0588 276.625 26.6374 276.625 26.1176V20.9412C276.625 20.4214 277.047 20 277.566 20ZM282.743 20C283.263 20 283.684 20.4214 283.684 20.9412V32.2353H278.508V39.2941H282.272V37.4118C282.272 36.892 282.694 36.4706 283.214 36.4706C283.733 36.4706 284.155 36.892 284.155 37.4118V43.0588C284.155 43.5786 283.733 44 283.214 44C282.694 44 282.272 43.5786 282.272 43.0588V41.1765H278.508V43.0588C278.508 43.5786 278.086 44 277.566 44C277.047 44 276.625 43.5786 276.625 43.0588V30.3529H281.802V20.9412C281.802 20.4214 282.223 20 282.743 20ZM272.39 22.8235C272.91 22.8235 273.331 23.2449 273.331 23.7647V40.2353C273.331 40.7551 272.91 41.1765 272.39 41.1765C271.87 41.1765 271.449 40.7551 271.449 40.2353V28.4706H267.684V32.2353C267.684 32.7551 267.263 33.1765 266.743 33.1765C266.223 33.1765 265.802 32.7551 265.802 32.2353V26.1176C265.802 25.5979 266.223 25.1765 266.743 25.1765C267.263 25.1765 267.684 25.5979 267.684 26.1176V26.5882H271.449V23.7647C271.449 23.2449 271.87 22.8235 272.39 22.8235ZM288.861 22.8235C289.38 22.8235 289.802 23.2449 289.802 23.7647V27.5294H292.625V26.1176C292.625 25.5979 293.047 25.1765 293.566 25.1765C294.086 25.1765 294.508 25.5979 294.508 26.1176V37.8824C294.508 38.4022 294.086 38.8235 293.566 38.8235C293.047 38.8235 292.625 38.4022 292.625 37.8824V36.9412H289.802V39.2941C289.802 39.8139 289.38 40.2353 288.861 40.2353C288.341 40.2353 287.919 39.8139 287.919 39.2941V23.7647C287.919 23.2449 288.341 22.8235 288.861 22.8235ZM289.802 35.0588H292.625V29.4118H289.802V35.0588Z" fill="#CBCBCB"/>
<path d="M315.5 38.3645H312.533L309.986 29.9362L307.492 38.3645H304.551L300.508 25H303.422L305.995 33.4808L308.49 25H311.43L313.977 33.4284L316.498 25H319.412L315.5 38.3645Z" fill="#CBCBCB"/>
<path d="M320.544 29.2272C320.596 28.6671 320.719 28.1332 320.911 27.6256C321.121 27.118 321.419 26.6717 321.804 26.2866C322.189 25.9015 322.671 25.5951 323.248 25.3676C323.826 25.1225 324.491 25 325.244 25H326.819C327.607 25 328.289 25.1313 328.867 25.3938C329.462 25.6564 329.952 26.0065 330.337 26.4441C330.722 26.8642 331.011 27.3543 331.204 27.9145C331.396 28.457 331.493 29.0084 331.493 29.5687V38.3645H324.036C323.458 38.3645 322.942 38.2595 322.487 38.0494C322.032 37.8218 321.647 37.5331 321.331 37.1829C321.034 36.8154 320.806 36.3865 320.649 35.8964C320.509 35.4063 320.439 34.8812 320.439 34.321C320.439 33.7784 320.517 33.2708 320.675 32.7982C320.832 32.3256 321.06 31.9229 321.358 31.5903C321.655 31.2403 322.023 30.9689 322.46 30.7764C322.916 30.5663 323.423 30.4613 323.983 30.4613H328.473V30.1988C328.473 29.8837 328.447 29.5949 328.394 29.3324C328.342 29.0522 328.246 28.8159 328.106 28.6234C327.966 28.4308 327.755 28.282 327.475 28.177C327.195 28.0544 326.819 27.9933 326.346 27.9933H325.69C324.99 27.9933 324.491 28.0983 324.193 28.3084C323.896 28.5008 323.695 28.8072 323.589 29.2272H320.544ZM320.911 34.321C320.911 34.7762 323.336 35.1175 323.511 35.345C323.703 35.5551 323.913 35.6601 324.141 35.6601H328.473V32.982H324.141C323.913 32.982 323.703 33.0957 323.511 33.3232C323.336 33.5508 320.911 33.8834 320.911 34.321Z" fill="#CBCBCB"/>
<path d="M339.8 38.3645H336.859L332.815 25H335.73L338.303 33.4808L340.797 25H343.738L339.8 38.3645Z" fill="#CBCBCB"/>
<path d="M345.109 29.7524C345.109 29.1048 345.232 28.5008 345.477 27.9407C345.722 27.3631 346.046 26.8554 346.448 26.4178C346.851 25.9802 347.315 25.6389 347.84 25.3938C348.365 25.1313 348.89 25 349.415 25H352.408C353.091 25 353.695 25.1488 354.22 25.4464C354.763 25.7264 355.209 26.094 355.559 26.5491C355.927 26.9867 356.207 27.4856 356.399 28.0457C356.609 28.5884 356.714 29.1223 356.714 29.6474V33.0345H348.207V33.7434C348.207 34.3736 348.382 34.8199 348.732 35.0825C349.083 35.345 349.546 35.4764 350.124 35.4764H356.242V38.417H349.441C348.846 38.417 348.286 38.3032 347.761 38.0757C347.236 37.8306 346.772 37.5068 346.369 37.1042C345.984 36.7016 345.678 36.2202 345.45 35.6601C345.223 35.1 345.109 34.4873 345.109 33.8222V29.7524ZM348.234 30.5401H350.951L352.474 32.2106L353.669 30.5401V30.4088C353.669 29.7262 353.494 29.166 353.144 28.7284C352.793 28.2733 352.321 28.0457 351.726 28.0457H350.098C349.818 28.0457 349.564 28.1157 349.336 28.2558C349.109 28.3783 348.916 28.5447 348.759 28.7546C348.601 28.9647 348.47 29.2185 348.365 29.5161C348.277 29.7961 348.234 30.0937 348.234 30.4088V30.5401Z" fill="#CBCBCB"/>
<path d="M506.789 42.4265C505.55 42.4265 504.381 42.2052 503.283 41.7624C502.203 41.302 501.264 40.6557 500.467 39.8234C499.688 38.9911 499.104 38.0083 498.714 36.8749L502.088 35.3609C502.584 36.4411 503.265 37.2911 504.133 37.9109C505.019 38.5307 505.992 38.8406 507.055 38.8406C507.622 38.8406 508.109 38.752 508.516 38.5749C508.923 38.3979 509.242 38.1588 509.472 37.8578C509.702 37.539 509.817 37.1671 509.817 36.7421C509.817 36.2817 509.676 35.8921 509.392 35.5734C509.109 35.2369 508.666 34.9713 508.064 34.7766L504.186 33.5015C502.61 32.988 501.424 32.2619 500.627 31.3234C499.83 30.3671 499.432 29.225 499.432 27.8969C499.432 26.7281 499.715 25.701 500.282 24.8156C500.866 23.9302 501.672 23.2396 502.699 22.7438C503.744 22.2479 504.939 22 506.285 22C507.471 22 508.569 22.2036 509.578 22.6109C510.588 23.0182 511.455 23.5938 512.181 24.3375C512.925 25.0813 513.483 25.9755 513.855 27.0203L510.508 28.5344C510.136 27.6135 509.578 26.8964 508.835 26.3828C508.091 25.8516 507.241 25.586 506.285 25.586C505.736 25.586 505.249 25.6745 504.824 25.8516C504.399 26.0286 504.071 26.2854 503.841 26.6219C503.611 26.9406 503.496 27.3125 503.496 27.7375C503.496 28.1979 503.646 28.6052 503.947 28.9593C504.248 29.2958 504.7 29.5614 505.302 29.7562L509.1 30.9781C510.694 31.4916 511.88 32.2088 512.66 33.1296C513.456 34.0505 513.855 35.1749 513.855 36.5031C513.855 37.6541 513.554 38.6812 512.952 39.5843C512.35 40.4697 511.517 41.1692 510.455 41.6827C509.41 42.1786 508.188 42.4265 506.789 42.4265Z" fill="#CBCBCB"/>
<path d="M516.789 42.1078V22.3188H520.906V42.1078H516.789Z" fill="#CBCBCB"/>
<path d="M524.415 42.1078V22.3188H528.532V38.5219H545.9V42.1078H524.415Z" fill="#CBCBCB"/>
<path d="M551.264 29.5735C551.264 30.813 551.043 32.9818 550.6 34.0797C550.14 35.1599 549.494 36.0985 548.661 36.8953C547.829 37.6745 546.846 38.2589 545.713 38.6484L544.199 35.275C545.279 34.7792 546.129 34.0974 546.749 33.2297C547.369 32.3443 547.678 30.3704 547.678 29.3078C547.678 28.7412 547.59 28.2542 547.413 27.8469C547.236 27.4396 546.997 27.1209 546.696 26.8907C546.377 26.6605 546.005 26.5454 545.58 26.5454C545.12 26.5454 544.73 26.687 544.411 26.9704C544.075 27.2537 543.809 27.6964 543.614 28.2985L542.339 32.1766C541.826 33.7526 541.1 34.9391 540.161 35.736C539.205 36.5329 538.063 36.9313 536.735 36.9313C535.566 36.9313 534.539 36.6479 533.653 36.0813C532.768 35.4969 532.077 34.6912 531.582 33.6641C531.086 32.6193 530.838 31.424 530.838 30.0782C530.838 28.8917 531.042 27.7938 531.449 26.7844C531.856 25.775 532.432 24.9073 533.175 24.1813C533.919 23.4376 534.813 22.8797 535.858 22.5079L537.372 25.8548C536.451 26.2266 535.734 26.7844 535.221 27.5282C534.689 28.2719 534.424 29.1219 534.424 30.0782C534.424 30.6271 534.512 31.1141 534.689 31.5391C534.867 31.9641 535.123 32.2917 535.46 32.5219C535.778 32.7521 536.15 32.8672 536.575 32.8672C537.036 32.8672 537.443 32.7167 537.797 32.4157C538.134 32.1146 538.399 31.663 538.594 31.061L539.816 27.2626C540.33 25.6688 541.047 24.4824 541.968 23.7032C542.888 22.9063 544.013 22.5079 545.341 22.5079C546.492 22.5079 547.519 22.8089 548.422 23.411C549.308 24.0131 550.007 24.8454 550.521 25.9079C551.016 26.9526 551.264 28.1745 551.264 29.5735Z" fill="#CBCBCB"/>
<path d="M553.14 42.1078V22.3188H557.257V42.1078H553.14Z" fill="#CBCBCB"/>
<path d="M559.838 42.2968V22.5078H563.955V38.7109H572.322V42.2968H559.838Z" fill="#CBCBCB"/>
<path d="M573.832 42.1078L580.525 22.3188H585.997L592.69 42.1078H588.201L586.873 38.0703H579.622L578.294 42.1078H573.832ZM580.764 34.4844H585.731L582.703 25.1345H583.819L580.764 34.4844Z" fill="#CBCBCB"/>
</g>
<defs>
<clipPath id="clip0_1_37">
<rect width="716" height="64" fill="white"/>
</clipPath>
</defs>
</svg>
