<svg width="113" height="96" viewBox="0 0 113 96" fill="none" xmlns="http://www.w3.org/2000/svg">
<path d="M53.6465 90.3538L5.64648 90.3538L5.64648 49.2765C5.64648 30.9066 15.105 17.8095 34.0222 9.98523C37.7349 8.4544 41.978 7.00862 46.7515 5.64788L53.5139 19.4253C42.641 23.0823 36.0553 27.8024 33.757 33.5855C32.6962 36.1369 32.1658 39.1985 32.1658 42.7705L53.6465 42.7705L53.6465 90.3538Z" fill="#CBCBCB" fill-opacity="0.48"/>
<path d="M107.293 90.3538L59.293 90.3538L59.293 49.2765C59.293 30.9066 68.7515 17.8095 87.6687 9.98523C91.3814 8.4544 95.6245 7.00862 100.398 5.64788L107.16 19.4253C96.2874 23.0823 89.7018 27.8024 87.4035 33.5855C86.3427 36.1369 85.8123 39.1985 85.8123 42.7705L107.293 42.7705L107.293 90.3538Z" fill="#CBCBCB" fill-opacity="0.48"/>
</svg>
